<?xml version="1.0" standalone="no"?>
<!DOCTYPE svg PUBLIC "-//W3C//DTD SVG 20010904//EN"
 "http://www.w3.org/TR/2001/REC-SVG-20010904/DTD/svg10.dtd">
<svg version="1.0" xmlns="http://www.w3.org/2000/svg"
 width="143.000000pt" height="143.000000pt" viewBox="0 0 143.000000 143.000000"
 preserveAspectRatio="xMidYMid meet">
<metadata>
Created by potrace 1.11, written by Peter Selinger 2001-2013
</metadata>
<g transform="translate(0.000000,143.000000) scale(0.100000,-0.100000)"
fill="#000000" stroke="none">
<path d="M290 1084 c-11 -17 -20 -34 -20 -37 0 -3 -32 -72 -70 -152 -39 -80
-70 -148 -70 -150 0 -1 -27 -60 -60 -130 -72 -150 -78 -176 -56 -210 9 -13 16
-31 16 -39 0 -32 40 -38 255 -38 125 0 220 4 231 10 11 6 33 39 51 74 72 143
203 416 203 422 0 4 -11 4 -25 2 -27 -5 -27 -1 -8 50 2 7 -31 10 -105 10
l-108 -1 -70 -157 c-65 -148 -71 -158 -96 -158 -35 0 -43 -21 148 375 21 44
38 85 39 90 0 6 -10 9 -23 9 -23 -1 -23 4 -5 52 3 7 -30 11 -102 10 l-106 0
-19 -32z"/>
<path d="M820 1038 c-23 -46 -46 -87 -50 -93 -4 -5 -10 -18 -14 -29 -5 -16 -2
-18 20 -13 27 5 28 0 9 -45 -6 -15 -2 -18 20 -18 22 0 25 -3 20 -21 -6 -19
-94 -206 -176 -374 -34 -71 -36 -85 -9 -78 22 6 26 -8 10 -38 -10 -18 -6 -19
112 -19 l123 0 14 33 c16 35 77 166 165 351 31 65 56 122 56 126 0 14 22 17
62 10 21 -4 41 -4 43 1 3 4 21 5 40 2 38 -6 85 3 85 16 0 5 18 48 40 95 44 95
49 118 23 114 -19 -3 -21 12 -8 45 7 16 -10 17 -267 17 l-275 0 -43 -82z"/>
</g>
</svg>
